<svg width="347" height="132" viewBox="0 0 347 132" fill="none" xmlns="http://www.w3.org/2000/svg">
<g opacity="0.75">
<path d="M337.328 49.5131C337.054 48.7031 336.343 46.9911 334.616 45.6651C334.4 45.4991 331.734 43.5091 328.885 44.0461C326.699 44.4581 325.904 44.6871 325.904 44.6871C325.012 44.9551 324.381 45.1881 324.074 44.8931C323.77 44.6001 324.007 43.9941 324.075 43.5051C324.312 41.8111 322.714 40.2601 321.812 39.3851C319.171 36.8221 315.153 36.9101 313.449 36.9561C307.927 37.1071 304.427 40.2011 304.046 40.5491C302.437 42.0181 302.881 42.6731 301.321 43.3881C298.925 44.4861 296.907 43.3831 293.896 44.6691C293.224 44.9561 291.807 45.6811 291.367 46.7021C291.04 47.4631 291.302 48.0841 291.514 48.5841C291.709 49.0461 291.864 49.4111 291.53 49.7311C291.124 50.1211 290.335 50.1061 289.242 50.0851C288.612 50.0731 287.898 50.0591 287.097 50.1181C283.864 50.3571 282.302 53.8231 279.036 53.6471C278.447 53.6151 277.984 53.4671 277.746 53.3801C276.597 56.4041 276.993 58.2321 277.494 59.3071C281.23 67.3101 305.356 64.5371 315.744 63.3421C319.79 62.8771 321.93 62.4121 326.313 62.3351C332.343 62.2291 334.904 62.1181 340.027 61.8951C342.975 61.7671 344.169 61.6861 345.156 60.7241C347.433 58.5081 347.042 53.1461 344.242 50.6341C342.693 49.2451 340.725 49.0121 340.593 48.9981C339.083 48.8411 337.895 49.2661 337.328 49.5131Z" fill="#F2F7F8"/>
<path d="M331.674 52.8071C333.154 52.7031 336.038 52.5001 337.133 50.3841C338.213 48.2971 336.858 45.6921 335.661 44.3761C333.217 41.6901 329.468 42.2212 328.905 42.3102C326.379 42.7072 324.773 44.2081 324.205 44.7951C324.228 43.7961 324.129 42.1301 323.309 40.3241C321.718 36.8201 318.59 35.3892 317.623 34.9652C313.2 33.0242 309.084 34.5272 307.885 35.0302C306.697 35.5292 304.409 36.5272 302.853 39.0162C301.802 40.6982 301.531 42.3451 301.451 43.2891C300.777 42.9311 298.797 41.9961 296.367 42.4921C293.621 43.0521 291.376 45.2201 290.463 48.1041C289.072 47.7981 286.343 47.4182 283.328 48.5252C282.383 48.8722 280.307 49.6641 278.762 51.6821C277.735 53.0241 276.851 55.0252 277.38 55.4992C277.818 55.8912 278.853 54.9001 281.065 53.9531C282.436 53.3671 286.315 51.7082 289.939 52.9122C291.667 53.4862 291.518 54.1071 293.183 54.4931C296.158 55.1831 298.788 53.7002 299.435 53.3352C302.688 51.5012 303.858 48.3821 304.161 47.4791C304.839 47.9461 305.829 48.5511 307.102 49.0791C311.3 50.8211 315.075 50.2722 316.251 50.0592C319.166 49.5322 321.32 48.3131 322.59 47.4451C322.947 48.2481 323.723 49.6942 325.27 50.9092C327.772 52.8782 330.553 52.8861 331.674 52.8071Z" fill="white"/>
<path d="M302.199 57.6431C303.137 58.3101 304.241 58.9451 305.523 59.4501C311.801 61.9261 317.905 59.5441 319.975 58.6231C321.505 59.3181 323.774 60.0391 326.314 59.5381C327.614 59.2821 327.796 58.9401 329.19 58.6881C331.885 58.2021 335.893 59.3171 335.893 59.3171C341.269 60.9191 345.353 59.1761 345.561 60.0701C345.764 60.9421 341.972 62.9801 338.138 63.7821C333.145 64.8261 328.673 64.0851 325.513 63.1571C322.039 65.2791 318.939 66.2821 316.837 66.7921C312.288 67.8961 310.552 67.1411 309.714 66.5961C309.089 66.1901 309.171 66.0361 308.554 65.6881C306.648 64.6131 304.575 65.3581 301.723 65.9991C301.723 65.9991 298.887 66.6321 295.99 66.9231C293.394 67.1841 289.195 67.6071 284.956 65.6111C283.744 65.0401 281.923 63.9871 280.081 62.0151C280.965 60.9671 282.484 59.4951 284.684 58.9511C288.906 57.9071 291.787 61.8351 296.382 60.5851C299.122 59.8391 301.087 58.5141 302.199 57.6431Z" fill="#CEEAF0"/>
</g>
<path d="M227.145 50.9267C224.211 52.3709 218.645 50.1441 217.381 51.1942C217.027 51.4882 216.75 51.8257 216.75 51.8257C216.213 52.5239 216.201 53.1717 214.704 54.8306C212.238 57.5634 209.393 58.837 209.278 58.6752C209.109 58.4392 212.355 56.8684 215.108 53.1389C216.29 51.5373 220.288 46.1207 218.439 40.3281C217.322 36.8284 214.654 35.0159 214.156 34.6892C209.491 31.6289 204.31 33.6826 203.949 33.833C201.862 34.7018 200.516 36.0421 199.815 36.8561C199.388 35.7273 198.277 33.2608 195.7 31.2991C193.122 29.3367 190.516 28.9735 189.1 28.796C184.235 28.1859 180.444 30.1589 179.353 30.7451C176.245 32.4165 175.761 33.9356 174.163 34.8907C173.765 35.128 173.259 35.3477 172.64 35.5102C172.015 35.6738 171.481 35.711 171.128 35.7166C169.722 33.1348 166.926 32.0766 164.881 32.9227C162.989 33.7052 162.406 35.8438 162.328 36.1454C161.783 35.7991 160.792 35.2778 159.481 35.1784C157.565 35.0323 156.149 35.8778 155.314 36.3764C151.927 38.3985 150.697 42.0884 150.349 43.2902C149.546 42.8174 148.419 42.3446 147.307 42.6682C145.936 43.0673 145.725 44.346 144.692 44.4335C143.391 44.543 142.847 42.5882 141.217 41.5715C140.038 40.8362 138.03 40.4295 134.393 41.8844C135.409 41.2832 137.271 40.3835 139.614 40.3602C140.346 40.3527 141.507 40.291 142.845 40.8167C143.191 40.9527 143.469 41.0949 143.661 41.2026C143.559 40.8249 143.444 40.2161 143.527 39.477C143.562 39.1704 143.685 38.1832 144.378 37.2868C145.393 35.9754 147.318 35.2564 148.738 35.7702C149.757 36.1391 150.273 37.0551 150.5 36.9008C150.726 36.7472 150.078 35.9338 150.149 34.8113C150.25 33.2047 151.752 32.1521 151.961 32.0098C152.347 31.7479 153.618 30.8836 155.078 31.3482C156.001 31.6415 156.53 32.317 156.733 32.6098C156.701 31.9903 156.696 30.2804 157.806 28.6008C158.02 28.2772 159.556 26.036 162.437 25.725C164.623 25.4889 166.225 26.5119 166.667 26.8034C167.996 27.6798 168.672 28.8136 168.963 29.3846C169.115 29.0597 169.532 28.2911 170.41 27.8472C171.905 27.0905 173.388 27.8818 173.558 27.9769C174.678 28.6027 175.082 29.6578 175.185 29.9562C175.406 28.6518 176.092 25.7061 178.531 23.1155C181.249 20.2283 185.619 18.3353 189.97 19.2185C193.9 20.0162 196.26 22.7088 197.299 23.8949C199.234 26.1021 200.085 28.269 200.295 28.8545C200.846 30.3868 201.045 31.746 201.119 32.7168C202.185 31.8997 204.221 30.5864 207.076 30.1495C208.282 29.965 210.438 29.6622 212.898 30.6424C215.497 31.6774 216.9 33.5327 217.511 34.3625C218.883 36.226 219.389 38.0706 219.595 39.1244C220.365 38.8078 222.043 38.2481 224.059 38.6554C226.428 39.1345 229.225 40.9413 229.863 44.035C230.41 46.6866 229.282 49.8753 227.145 50.9267Z" fill="white"/>
<path d="M147.058 107.292C149.052 109.909 153.014 110.849 156.736 109.396C157.167 110.197 157.859 111.335 158.907 112.528C164.933 119.394 176.044 120.48 184.284 118C186.362 117.375 189.424 116.172 192.734 113.698C193.92 114.308 195.467 114.962 197.34 115.418C200.23 116.122 202.735 116.072 204.45 115.894C208.399 117.428 211.924 118.207 214.727 118.62C217.75 119.064 231.18 120.736 242.104 113.348C245.81 110.841 246.845 108.904 247.203 107.269C247.956 103.83 246.124 99.8665 244.387 98.7383C243.789 98.3503 242.43 97.5118 240.966 95.9114C240.735 95.6588 240.517 95.355 240.286 94.9374C238.144 91.0745 242.232 88.0252 241.213 83.2462C240.012 77.6154 232.127 71.9114 226.183 72.986C223.195 73.5263 222.298 75.4931 219.506 75.0971C215.963 74.5943 215.671 71.1791 212.404 70.6345C208.536 69.9898 203.684 73.8988 202.982 77.7523C202.611 79.7882 203.356 82.0521 203.056 82.1165C202.829 82.165 202.69 80.8538 201.682 79.9053C200.368 78.6689 197.985 78.438 196.106 79.2807C194.281 80.1 192.801 81.9929 192.859 83.8646C192.928 86.0533 195.078 87.5648 194.892 87.7519C194.699 87.9466 192.829 85.9178 190.214 84.5832C186.492 82.6837 182.48 83.8119 181.915 83.9793C177.357 85.3305 174.67 89.397 174.37 89.8645C173.397 91.3797 173.297 92.2248 172.297 92.6076C170.613 93.2519 169.427 91.4173 165.709 90.5572C164.146 90.1955 162.382 89.7869 160.46 90.5299C157.722 91.5885 156.554 94.1732 156.458 94.3971C155.577 96.4282 156.314 97.5343 155.424 98.1622C154.235 99.0002 152.7 97.1421 149.756 97.6486C149.179 97.7478 147.836 97.9454 146.867 98.8887C144.95 100.755 145.183 104.83 147.058 107.292Z" fill="#E9F4F6"/>
<path d="M161.403 101.308C163.295 100.297 166.562 98.5501 170.466 97.9802C176.996 97.0264 178.713 100.329 184.067 99.106C188.656 98.0578 188.938 95.2788 193.292 93.5637C196.508 92.2968 201.581 91.7536 209.495 95.4651C210.463 94.4643 212.316 92.8399 215.084 92.0188C219.837 90.6089 225.927 91.9718 228.372 95.6791C230.902 99.5138 227.969 103.487 231.013 106.364C232.92 108.167 235.777 108.217 236.322 108.227C240.312 108.297 242.579 105.528 243.681 106.364C244.609 107.068 244.135 109.89 242.921 112.029C238.414 119.966 222.943 119.85 214.727 118.62C210.206 117.944 206.644 116.744 204.45 115.895C202.735 116.072 200.23 116.123 197.34 115.419C195.467 114.963 193.92 114.31 192.734 113.699C189.423 116.173 186.362 117.376 184.284 118.001C176.044 120.481 164.933 119.395 158.907 112.529C157.859 111.336 157.167 110.197 156.736 109.397C155.544 109.848 153.729 110.303 151.626 109.94C150.628 109.769 147.574 109.243 147.058 107.293C146.786 106.262 147.241 104.903 148.11 104.502C149.095 104.045 150.017 105.096 151.37 105.526C154.286 106.453 156.832 103.751 161.403 101.308Z" fill="#CEEAF0"/>
<path d="M145.299 99.2777C145.559 98.9221 146.627 97.5381 148.571 96.9342C150.309 96.3944 151.785 96.7767 152.819 97.0452C153.956 97.3401 154.83 97.7841 155.395 98.1194C155.262 97.1426 155.011 94.2898 156.81 91.9262C159.903 87.8629 166.052 89.1906 166.655 89.3302C169.53 89.9966 171.417 91.676 172.279 92.5592C172.505 91.6915 174.02 86.2461 179.377 83.6059C180.664 82.9715 184.109 81.5451 188.188 82.5925C190.005 83.059 191.357 83.8651 192.19 84.4529C192.124 81.5959 193.826 79.0799 196.295 78.2452C199.186 77.2684 201.692 79.0799 201.92 79.2511C201.903 78.9487 201.641 72.416 206.991 68.8508C211.51 65.8395 216.392 67.3713 216.86 67.5269C220.304 68.6725 222.152 71.158 222.739 72.0256C223.426 71.7562 230.746 69.0248 237.392 73.4544C242.585 76.9166 245.022 83.1921 244.175 88.6601C243.793 91.1262 242.807 93.0022 242.087 94.1379C242.95 94.5269 244.23 95.2243 245.488 96.4386C246.123 97.0518 247.594 98.4984 248.38 100.868C248.696 101.821 249.691 104.801 248.207 107.842C246.742 110.842 243.67 112.251 243.492 112.055C243.412 111.967 243.907 111.536 244.454 110.705C244.754 110.251 246.147 108.043 246 105.154C245.82 101.638 243.476 99.3868 242.827 98.8088C240.92 97.1078 238.836 96.6333 237.914 96.4804C238.183 95.1302 238.829 90.9776 236.6 86.5885C236.31 86.0194 233.446 80.5985 227.214 78.9149C224.512 78.185 222.156 78.422 220.945 78.6256C217.042 79.2821 215.663 81.3928 210.984 82.5939C209.086 83.0811 207.479 83.2137 206.475 83.2537C205.88 84.3382 204.898 85.8727 203.346 87.4115C202.345 88.4038 201.626 89.1261 200.526 89.5263C197.687 90.5586 195.137 89.0481 194.768 88.8214C193.662 88.0769 190.468 86.1398 186.014 86.2894C184.002 86.3566 180.286 86.8984 177.025 89.7615C174.202 92.2403 173.162 95.1919 172.795 96.4593C172.278 95.918 169.187 92.7863 164.672 93.0511C163.764 93.1043 161.356 93.2816 159.284 95.1641C156.582 97.6195 156.572 101.049 156.58 101.629C156.136 101.073 155.047 99.8712 153.262 99.3901C151.082 98.8027 148.061 99.3825 146.606 101.715C145.575 103.366 145.748 105.975 147.089 107.252C147.201 107.358 147.323 107.455 147.457 107.546C147.315 107.493 147.173 107.419 147.03 107.336C146.409 106.976 144.622 105.94 144.125 103.862C143.588 101.62 144.936 99.7748 145.299 99.2777Z" fill="white"/>
<path d="M219.477 111.043C215.776 110.919 212.337 108.384 210.605 104.559C207.508 106.991 205.312 107.172 203.901 106.915C200.358 106.269 200.087 102.555 195.461 101.011C191.969 99.8453 188.499 100.572 188.499 100.572C185.898 101.117 184.316 102.347 182.554 101.598C181.432 101.12 180.801 100.08 180.455 99.3336C181.182 99.24 181.712 99.0355 182.04 98.8817C183.55 98.1753 184.631 96.8449 185.326 95.7327C186.668 94.4643 189.111 92.5263 192.674 91.4775C198.545 89.7502 203.492 91.6036 205.037 92.262C206.838 93.029 208.197 93.954 209.096 94.6524C209.079 94.0462 209.097 93.1945 209.255 92.1942C209.353 91.5786 209.843 88.4823 211.719 86.2687C214.24 83.2932 218.962 82.2684 222.828 83.4879C227.182 84.8616 229.096 88.614 229.725 89.8471C232.2 94.699 231.69 100.729 228.708 105.12C227.609 106.738 224.569 111.214 219.477 111.043Z" fill="#E9F4F6"/>
<path d="M225.148 109.143C225.132 109.127 225.116 109.111 225.1 109.095C227.892 106.546 229.997 102.476 229.172 99.9351C229.054 99.5697 228.674 98.3982 227.653 97.9115C226.587 97.4036 225.858 98.1363 224.682 98.14C221.719 98.1499 221.132 93.5209 217.482 92.7689C215.553 92.3715 213.918 93.2938 213.51 93.5242C210.994 94.9435 210.376 97.6505 210.271 98.1457C209.265 97.2023 207.548 95.8253 205.091 94.8622C201.049 93.2778 197.382 93.7659 195.558 94.1379C192.214 94.8203 189.45 96.5453 188.27 97.3598C185.653 99.1667 184.139 101.084 182.286 100.658C181.431 100.462 180.832 99.8411 180.454 99.3332C181.181 99.2396 181.711 99.035 182.04 98.8812C183.549 98.1749 184.63 96.8444 185.325 95.7322C187.671 92.0753 193.033 90.7472 193.625 90.6005C197.73 89.5842 201.312 90.8596 203.426 91.6116C205.954 92.5112 207.853 93.726 209.095 94.652C209.079 94.0458 209.096 93.1941 209.254 92.1938C209.352 91.5782 209.845 88.4842 211.718 86.2682C214.149 83.3934 218.821 82.2238 222.827 83.4874C227.181 84.8611 229.095 88.6135 229.724 89.8466C233.486 97.2211 228.904 104.8 228.707 105.119C228.12 106.072 226.988 107.626 225.148 109.143Z" fill="white"/>
<path d="M177.273 108.767C177.292 108.508 177.321 107.648 176.736 106.895C176.015 105.967 174.897 105.895 174.502 105.87C173.232 105.788 172.316 106.436 172.047 106.642C172.058 106.305 172.071 104.845 170.976 103.603C169.986 102.479 168.727 102.257 168.268 102.183C167.954 102.132 165.591 101.787 164.307 103.329C163.576 104.207 163.473 105.365 163.45 105.618C163.41 106.067 163.446 106.444 163.486 106.707C163.397 106.57 162.654 105.472 161.278 105.366C159.957 105.264 159.093 106.158 158.886 106.373C157.649 107.653 157.969 109.435 158.007 109.627C157.085 109.347 156.092 109.632 155.496 110.344C154.822 111.149 154.781 112.352 155.419 113.248C155.601 113.408 155.877 113.638 156.231 113.889C156.425 114.026 158.453 115.434 161.01 115.755C164.796 116.232 165.887 113.841 169.819 114.6C170.849 114.799 170.567 114.923 171.769 115.178C172.53 115.339 177.066 116.301 180.119 113.755C180.762 113.219 181.987 112.172 181.863 110.735C181.774 109.702 180.997 108.595 179.792 108.262C178.476 107.898 177.408 108.666 177.273 108.767Z" fill="white"/>
<path d="M169.717 110.907C171.77 111.401 173.119 112.634 173.755 113.313C173.853 113.133 174.824 111.424 176.644 111.285C177.815 111.196 179.334 111.758 179.514 112.701C179.698 113.664 178.408 114.624 178.133 114.829C176.166 116.293 174.41 115.471 169.577 115.71C166.695 115.852 165.993 116.21 163.643 115.964C160.247 115.608 159.433 114.623 159.139 114.055C159.085 113.953 158.764 113.311 158.907 112.528C159.178 111.052 160.848 110.463 161.028 110.403C161.252 110.327 162.872 109.784 163.895 110.769C164.393 111.247 164.519 111.867 164.558 112.164C164.864 111.824 165.385 111.339 166.153 111.006C167.572 110.391 168.892 110.709 169.717 110.907Z" fill="#E9F4F6"/>
<g filter="url(#filter0_f_205_4)">
<circle cx="66" cy="66" r="52" fill="url(#paint0_linear_205_4)"/>
</g>
<circle cx="66" cy="66" r="52" fill="url(#paint1_linear_205_4)"/>
<defs>
<filter id="filter0_f_205_4" x="0" y="0" width="132" height="132" filterUnits="userSpaceOnUse" color-interpolation-filters="sRGB">
<feFlood flood-opacity="0" result="BackgroundImageFix"/>
<feBlend mode="normal" in="SourceGraphic" in2="BackgroundImageFix" result="shape"/>
<feGaussianBlur stdDeviation="7" result="effect1_foregroundBlur_205_4"/>
</filter>
<linearGradient id="paint0_linear_205_4" x1="37.2632" y1="24.9474" x2="102.947" y2="118" gradientUnits="userSpaceOnUse">
<stop stop-color="#FFF500"/>
<stop offset="1" stop-color="#FFC700"/>
</linearGradient>
<linearGradient id="paint1_linear_205_4" x1="37.2632" y1="24.9474" x2="102.947" y2="118" gradientUnits="userSpaceOnUse">
<stop stop-color="#FFF500"/>
<stop offset="1" stop-color="#FFC700"/>
</linearGradient>
</defs>
</svg>
