<svg width="375" height="131" viewBox="0 0 375 131" fill="none" xmlns="http://www.w3.org/2000/svg">
<g clip-path="url(#clip0_7_8)">
<g opacity="0.35">
<path d="M170.071 -23.083C168.868 -24.0361 167.598 -24.2583 167.059 -24.3465C163.995 -24.847 162.417 -22.9023 161.174 -23.7629C160.243 -24.4069 161 -25.5628 160.066 -27.6661C159.964 -27.8978 158.728 -30.5734 155.873 -31.6487C153.507 -32.5395 151.307 -31.8514 150.418 -31.5738C147.06 -30.5237 146.038 -28.251 144.866 -28.7628C143.828 -29.2161 144.358 -31.0871 143.295 -34.1474C143.077 -34.7769 142.186 -37.1888 140.3 -39.107C139.151 -40.2755 137.839 -41.0486 136.569 -41.5591C131.57 -39.306 126.865 -36.4478 122.455 -33.1684C117.576 -29.5409 111.829 -31.6285 106.188 -31.0884C102.299 -30.7157 98.9994 -28.7017 95.958 -26.378C94.5572 -25.3078 93.837 -24.1992 92.7202 -22.8872C92.4394 -22.5579 91.9609 -21.8962 91.4636 -21.7666C90.3398 -21.4726 88.5714 -22.3413 87.1801 -23.054C87.5012 -22.0738 88.1037 -21.5701 87.9526 -21.3939C87.7826 -21.1956 86.9749 -21.781 85.8448 -22.1846C84.485 -22.67 83.3317 -22.6442 82.614 -22.641C82.0637 -22.6385 79.8105 -22.5799 77.5995 -21.244C77.5523 -21.2157 77.4825 -21.1729 77.3931 -21.1169C76.9499 -20.8367 73.0025 -18.2417 73.0202 -14.1458C73.0302 -11.7636 74.3794 -9.50599 76.1107 -8.28276C78.1 -6.87696 79.2565 -7.78164 83.212 -6.20523C85.5622 -5.26846 85.2902 -4.89513 87.4489 -4.08804C90.6257 -2.9007 93.3938 -2.8944 95.0124 -2.90574C97.044 -2.91959 99.3897 -2.93533 102.147 -3.96717C105.206 -5.1117 107.003 -6.84486 109.322 -6.13661C109.932 -5.95026 109.961 -5.76266 110.927 -5.47054C111.434 -5.31756 113.146 -4.83847 115.397 -5.00971C119.138 -5.29427 120.003 -7.04317 122.542 -7.28869C125.476 -7.57262 126.993 -5.13058 129.789 -3.98038C139.645 0.0733185 153.631 -2.18301 157.681 -8.80278C158.467 -10.0871 158.608 -11.0931 159.909 -12.0771C163.062 -14.4618 166.635 -11.9304 169.946 -14.3485C170.264 -14.5802 172.186 -16.0313 172.361 -18.3607C172.563 -21.0514 170.286 -22.9136 170.071 -23.083Z" fill="#F2F7F8"/>
<path d="M167.952 -21.3479C165.429 -22.7909 162.601 -21.8761 161.719 -21.5909C158.998 -20.7102 159.119 -19.4423 157.02 -19.142C154.594 -18.7944 154.045 -20.4344 151.565 -20.1184C149.284 -19.8282 149.137 -18.3393 146.723 -17.9955C145.048 -17.7569 144.8 -18.4287 141.79 -18.9619C140.543 -19.1829 137.798 -19.6456 134.646 -19.057C133.384 -18.8209 131.488 -18.3109 129.345 -17.0764C128.634 -15.9363 127.044 -13.3161 123.839 -12.1249C121.399 -11.2184 118.572 -10.9735 116.007 -11.1428C114.198 -11.2624 106.544 -12.2395 105.738 -15.1821C103.316 -13.25 100.799 -11.2662 97.7302 -10.5901C96.2048 -10.2539 92.945 -9.57713 89.6222 -11.2687C88.0351 -12.0765 86.9743 -13.1524 86.3466 -13.9066C85.4659 -13.4854 83.8549 -12.8842 81.8743 -13.0932C77.1432 -13.5937 74.8384 -18.2448 74.6646 -18.61C74.1503 -17.8866 73.189 -16.3216 73.0215 -14.1458C72.9774 -13.5773 72.7439 -9.66023 75.8759 -6.97141C78.8927 -4.38142 82.5655 -5.04812 83.0213 -5.1394C84.1287 -4.16233 88.7295 -0.331495 95.664 -0.375565C103.491 -0.425299 108.387 -5.37423 109.252 -6.28078C109.639 -5.88354 112.272 -3.26711 116.368 -3.4906C120.28 -3.70402 122.566 -6.345 122.939 -6.79136C124.444 -5.87095 126.757 -4.60176 129.75 -3.53845C132.812 -2.45058 144.154 1.57732 154.48 -4.0402C156.328 -5.0456 159.168 -6.9179 161.916 -10.3597C165.793 -9.02879 169.608 -10.5089 170.835 -13.1222C171.752 -15.0769 171.157 -17.529 170.186 -19.1161C169.922 -19.5442 169.257 -20.6019 167.952 -21.3479Z" fill="#CEEAF0"/>
</g>
<g filter="url(#filter0_f_7_8)">
<circle cx="310" cy="65" r="52" fill="white"/>
</g>
<path d="M310 117C338.719 117 362 93.7188 362 65C362 36.2812 338.719 13 310 13C281.281 13 258 36.2812 258 65C258 93.7188 281.281 117 310 117Z" fill="#EFEAD7"/>
<g opacity="0.54">
<path d="M310 13C306.695 13 303.463 13.312 300.329 13.9012C324.426 18.4342 342.658 39.5858 342.658 64.9995C342.658 90.4132 324.426 111.565 300.329 116.098C303.463 116.688 306.695 116.999 310 116.999C338.719 116.999 362 93.7183 362 64.9995C362 36.2807 338.719 13 310 13Z" fill="#E5E0CF"/>
</g>
<mask id="mask0_7_8" style="mask-type:luminance" maskUnits="userSpaceOnUse" x="258" y="13" width="104" height="104">
<path d="M310 117C338.719 117 362 93.7188 362 65C362 36.2812 338.719 13 310 13C281.281 13 258 36.2812 258 65C258 93.7188 281.281 117 310 117Z" fill="white"/>
</mask>
<g mask="url(#mask0_7_8)">
<path d="M296.699 39.8743C296.29 39.8743 295.894 39.9266 295.512 40.0166C297.797 40.5535 299.5 42.6 299.5 45.0489C299.5 47.4973 297.797 49.5438 295.512 50.0812C295.894 50.1706 296.29 50.2235 296.699 50.2235C299.557 50.2235 301.873 47.9071 301.873 45.0494C301.873 42.1907 299.557 39.8743 296.699 39.8743Z" fill="#DDD8CA"/>
<path d="M299.5 45.0484C299.5 42.6 297.797 40.5535 295.512 40.0161C293.227 40.553 291.524 42.5995 291.524 45.0484C291.524 47.4968 293.227 49.5433 295.512 50.0807C297.797 49.5437 299.5 47.4973 299.5 45.0484Z" fill="#E5E0CF"/>
<path d="M296.08 100.567C295.807 100.567 295.542 100.602 295.288 100.662C296.814 101.021 297.952 102.388 297.952 104.023C297.952 105.659 296.814 107.026 295.288 107.385C295.542 107.445 295.807 107.48 296.08 107.48C297.989 107.48 299.537 105.932 299.537 104.023C299.536 102.115 297.989 100.567 296.08 100.567Z" fill="#DDD8CA"/>
<path d="M297.951 104.024C297.951 102.388 296.814 101.021 295.287 100.663C293.761 101.021 292.623 102.388 292.623 104.024C292.623 105.66 293.76 107.027 295.287 107.385C296.814 107.027 297.951 105.66 297.951 104.024Z" fill="#E5E0CF"/>
<path d="M287.519 81.0675C286.945 81.0675 286.39 81.1408 285.854 81.267C289.061 82.0205 291.451 84.8924 291.451 88.3291C291.451 91.7653 289.061 94.6376 285.854 95.3912C286.39 95.5173 286.946 95.5907 287.519 95.5907C291.53 95.5907 294.781 92.3398 294.781 88.3291C294.781 84.3183 291.53 81.0675 287.519 81.0675Z" fill="#DDD8CA"/>
<path d="M291.45 88.3286C291.45 84.8924 289.06 82.0205 285.854 81.2665C282.648 82.02 280.258 84.8919 280.258 88.3286C280.258 91.7648 282.648 94.6372 285.854 95.3907C289.06 94.6372 291.45 91.7653 291.45 88.3286Z" fill="#E5E0CF"/>
<path d="M277.056 42.3848C276.181 42.3848 275.334 42.4968 274.518 42.6885C279.404 43.8371 283.046 48.2137 283.046 53.4508C283.046 58.688 279.404 63.0645 274.518 64.2132C275.334 64.4049 276.181 64.5173 277.056 64.5173C283.168 64.5173 288.122 59.5628 288.122 53.4508C288.122 47.3393 283.168 42.3848 277.056 42.3848Z" fill="#DDD8CA"/>
<path d="M283.046 53.4508C283.046 48.2137 279.404 43.8371 274.518 42.6885C269.631 43.8371 265.989 48.2137 265.989 53.4508C265.989 58.688 269.631 63.0645 274.518 64.2132C279.404 63.0645 283.046 58.688 283.046 53.4508Z" fill="#E5E0CF"/>
<path d="M329.29 76.6283C328.208 76.6283 327.161 76.7667 326.152 77.0044C332.195 78.4249 336.699 83.8376 336.699 90.3139C336.699 96.7907 332.195 102.203 326.152 103.624C327.161 103.861 328.208 104 329.29 104C336.848 104 342.976 97.8728 342.976 90.3144C342.976 82.7555 336.848 76.6283 329.29 76.6283Z" fill="#DDD8CA"/>
<path d="M336.699 90.3139C336.699 83.8372 332.195 78.4244 326.152 77.0044C320.109 78.4249 315.604 83.8376 315.604 90.3139C315.604 96.7907 320.109 102.203 326.152 103.624C332.195 102.203 336.699 96.7907 336.699 90.3139Z" fill="#E5E0CF"/>
<path d="M334.785 53.9247C334.104 53.9247 333.445 54.0117 332.81 54.1614C336.614 55.0553 339.449 58.4626 339.449 62.5394C339.449 66.6161 336.614 70.023 332.81 70.9174C333.445 71.0665 334.104 71.154 334.785 71.154C339.543 71.154 343.4 67.2973 343.4 62.5394C343.399 57.7814 339.543 53.9247 334.785 53.9247Z" fill="#DDD8CA"/>
<path d="M339.448 62.5389C339.448 58.4621 336.613 55.0553 332.809 54.1609C329.005 55.0548 326.17 58.4621 326.17 62.5389C326.17 66.6156 329.005 70.0225 332.809 70.9169C336.613 70.023 339.448 66.6156 339.448 62.5389Z" fill="#E5E0CF"/>
<path d="M350.458 67.909C350.022 67.909 349.6 67.9648 349.192 68.0606C351.628 68.6332 353.445 70.8156 353.445 73.4269C353.445 76.0381 351.629 78.22 349.192 78.7926C349.599 78.8885 350.022 78.9442 350.458 78.9442C353.505 78.9442 355.975 76.4738 355.975 73.4269C355.976 70.3794 353.505 67.909 350.458 67.909Z" fill="#DDD8CA"/>
<path d="M353.445 73.4264C353.445 70.8151 351.629 68.6332 349.193 68.0601C346.756 68.6328 344.94 70.8151 344.94 73.4264C344.94 76.0376 346.756 78.2196 349.193 78.7922C351.629 78.2196 353.445 76.0376 353.445 73.4264Z" fill="#E5E0CF"/>
<path d="M348.157 44.8435C347.74 44.8435 347.336 44.8968 346.946 44.9887C349.278 45.5369 351.017 47.6259 351.017 50.1252C351.017 52.6244 349.278 54.7134 346.946 55.2616C347.336 55.353 347.74 55.4068 348.157 55.4068C351.074 55.4068 353.439 53.042 353.439 50.1252C353.439 47.2083 351.074 44.8435 348.157 44.8435Z" fill="#DDD8CA"/>
<path d="M351.017 50.1252C351.017 47.6259 349.278 45.5369 346.946 44.9887C344.614 45.5369 342.876 47.6259 342.876 50.1252C342.876 52.6244 344.614 54.7134 346.946 55.2616C349.278 54.7134 351.017 52.6244 351.017 50.1252Z" fill="#E5E0CF"/>
<path d="M291.799 23.1462C291.273 23.1462 290.764 23.2137 290.273 23.3291C293.212 24.0196 295.402 26.6518 295.402 29.8015C295.402 32.9511 293.212 35.5829 290.273 36.2738C290.764 36.3892 291.273 36.4567 291.799 36.4567C295.475 36.4567 298.455 33.4773 298.455 29.8015C298.455 26.1257 295.475 23.1462 291.799 23.1462Z" fill="#DDD8CA"/>
<path d="M295.402 29.8015C295.402 26.6523 293.212 24.02 290.273 23.3291C287.335 24.0196 285.145 26.6518 285.145 29.8015C285.145 32.9511 287.335 35.5829 290.273 36.2738C293.212 35.5829 295.402 32.9506 295.402 29.8015Z" fill="#E5E0CF"/>
</g>
<ellipse cx="26" cy="176" rx="136" ry="101" fill="url(#paint0_linear_7_8)"/>
<circle cx="79.5" cy="27.5" r="1.5" fill="#C7C7C7"/>
<circle cx="146.5" cy="29.5" r="1.5" fill="#C7C7C7"/>
<circle cx="244.5" cy="107.5" r="1.5" fill="#C7C7C7"/>
<circle cx="232.5" cy="20.5" r="1.5" fill="#C7C7C7"/>
<circle cx="219.5" cy="48.5" r="1.5" fill="#C7C7C7"/>
<circle cx="174.5" cy="74.5" r="1.5" fill="#C7C7C7"/>
<circle cx="163.5" cy="109.5" r="1.5" fill="#C7C7C7"/>
<circle cx="87.5" cy="61.5" r="1.5" fill="#C7C7C7"/>
<circle cx="40.5" cy="42.5" r="1.5" fill="#C7C7C7"/>
</g>
<defs>
<filter id="filter0_f_7_8" x="244" y="-1" width="132" height="132" filterUnits="userSpaceOnUse" color-interpolation-filters="sRGB">
<feFlood flood-opacity="0" result="BackgroundImageFix"/>
<feBlend mode="normal" in="SourceGraphic" in2="BackgroundImageFix" result="shape"/>
<feGaussianBlur stdDeviation="7" result="effect1_foregroundBlur_7_8"/>
</filter>
<linearGradient id="paint0_linear_7_8" x1="26" y1="75" x2="26" y2="277" gradientUnits="userSpaceOnUse">
<stop stop-color="#0C2F45"/>
<stop offset="1" stop-color="#151F25"/>
</linearGradient>
<clipPath id="clip0_7_8">
<rect width="375" height="130.24" rx="65.1201" fill="white"/>
</clipPath>
</defs>
</svg>
