<?xml version="1.0" encoding="UTF-8" standalone="no"?>
<!-- Created with Inkscape (http://www.inkscape.org/) -->

<svg
   width="101.32136mm"
   height="95.693901mm"
   viewBox="0 0 101.32136 95.693901"
   version="1.1"
   id="svg1"
   xmlns="http://www.w3.org/2000/svg"
   xmlns:svg="http://www.w3.org/2000/svg">
  <defs
     id="defs1" />
  <g
     id="layer1"
     transform="translate(-27.591005,-159.89076)">
    <g
       id="g3"
       transform="translate(2.3248419,8.0077886)">
      <path
         style="fill:none;fill-opacity:1;stroke:#db00ff;stroke-width:0.566;stroke-dasharray:none;stroke-opacity:1"
         d="m 105.12125,163.20374 c 0,0 -12.907681,-7.10812 -19.996998,-8.73788 -20.068427,-4.94255 -33.346104,-0.16668 -46.579117,15.94506 -11.10266,14.30923 -11.460469,36.63679 -4.431395,48.92729 10.891137,19.04343 37.659456,32.15681 59.670399,25.73321 9.030471,-2.63542 16.929681,-9.35179 22.676791,-16.79931 4.99186,-6.46881 7.91329,-14.67146 9.12112,-22.75263 1.43907,-7.62128 0.603,-10.9609 -1.32181,-18.00595"
         id="path2" />
      <path
         style="fill:none;fill-opacity:1;stroke:#db00ff;stroke-width:0.566;stroke-dasharray:none;stroke-opacity:1"
         d="m 29.138782,193.31067 c 0.51771,3.6999 2.633225,19.19318 7.08871,27.5716 4.924299,9.26 11.027927,19.94939 20.884624,23.53296 15.868877,5.7694 40.179856,2.65103 50.105074,-7.44622 15.37854,-15.64512 20.74553,-44.96574 8.59639,-64.41162 -4.98445,-7.9781 -13.59047,-13.76115 -22.316942,-17.27449 -7.579683,-3.05164 -22.007367,-4.22664 -32.639264,-1.83769 -6.414246,1.44125 -12.319577,4.27517 -17.324245,9.42594 -1.913934,1.96981 -8.266589,8.01689 -10.978989,12.99752 -3.832259,7.03696 -5.269022,14.55833 -7.010824,22.99333"
         id="path2-8" />
    </g>
  </g>
</svg>
